<?xml version="1.0" standalone="no"?>
<!DOCTYPE svg PUBLIC "-//W3C//DTD SVG 20010904//EN"
 "http://www.w3.org/TR/2001/REC-SVG-20010904/DTD/svg10.dtd">
<svg version="1.0" xmlns="http://www.w3.org/2000/svg"
 width="1200.000000pt" height="1200.000000pt" viewBox="0 0 1200.000000 1200.000000"
 preserveAspectRatio="xMidYMid meet">

<g transform="translate(0.000000,1200.000000) scale(0.100000,-0.100000)"
fill="#ec644b" stroke="none">
<path d="M5560 11150 c-977 -58 -1844 -357 -2650 -916 -1005 -695 -1749 -1769
-2044 -2952 -108 -432 -150 -790 -150 -1267 0 -291 9 -445 40 -685 164 -1287
841 -2494 1861 -3314 754 -607 1631 -984 2558 -1101 989 -124 1962 21 2830
422 1241 573 2203 1615 2684 2906 337 904 400 1979 175 2957 -148 639 -430
1257 -829 1816 -338 472 -771 897 -1251 1230 -753 520 -1581 817 -2491 894
-177 14 -565 20 -733 10z m440 -1697 c25 -9 68 -30 95 -49 72 -48 3126 -3108
3158 -3164 73 -128 74 -312 2 -433 -13 -23 -185 -203 -382 -399 -304 -303
-367 -361 -415 -383 -83 -38 -163 -50 -244 -36 -143 25 -127 11 -846 729
l-658 656 -2 -1734 -3 -1735 -32 -66 c-43 -86 -125 -169 -211 -211 l-67 -33
-540 0 -540 0 -67 33 c-87 43 -167 122 -209 209 l-34 68 -3 1734 -2 1735 -653
-651 c-390 -389 -670 -661 -697 -676 -88 -51 -218 -70 -319 -46 -111 25 -142
50 -455 359 -349 345 -417 421 -447 499 -43 114 -34 261 22 373 14 30 491 514
1562 1586 848 849 1562 1558 1587 1576 111 81 267 104 400 59z"/>
</g>
</svg>
